<svg width="24" height="24" viewBox="0 0 24 24" fill="none" xmlns="http://www.w3.org/2000/svg">
<g clip-path="url(#clip0_210_463)">
<path d="M17.0415 6.21973C17.1158 6.29323 17.1893 6.36598 17.0415 6.21973V6.21973Z" fill="#FF0101"/>
<path d="M17.0416 6.21975C16.7454 5.9265 16.2661 5.9265 15.9699 6.21975L5.25461 16.8645L1.29311 12.9698C0.997613 12.6765 0.517613 12.6765 0.222113 12.9698C-0.0733867 13.263 -0.0733867 13.7378 0.222113 14.0303L4.72136 18.4545C5.01386 18.744 5.50061 18.744 5.79311 18.4545L17.0416 7.28025C17.3379 6.98775 17.3371 6.513 17.0416 6.21975Z" fill="#FF0101"/>
<path d="M17.0415 6.21975C16.8937 6.0735 16.9672 6.14625 17.0415 6.21975V6.21975Z" fill="#FF0101"/>
<path d="M23.7781 6.21975C23.6303 6.0735 23.7046 6.14625 23.7781 6.21975V6.21975Z" fill="#FF0101"/>
<path d="M23.7778 6.21973C23.8521 6.29323 23.9256 6.36598 23.7778 6.21973V6.21973Z" fill="#FF0101"/>
<path d="M23.7779 6.21975C23.4817 5.9265 23.0024 5.9265 22.7062 6.21975L11.9909 16.8645L11.0294 15.9698C10.7339 15.6765 10.2539 15.6765 9.95844 15.9698C9.66294 16.263 9.66294 16.7378 9.95844 17.0303L11.4577 18.4545C11.7502 18.744 12.2369 18.744 12.5294 18.4545L23.7779 7.28025C24.0742 6.98775 24.0742 6.513 23.7779 6.21975Z" fill="#FF0101"/>
</g>
<defs>
<clipPath id="clip0_210_463">
<rect width="24" height="24" fill="white"/>
</clipPath>
</defs>
</svg>
