<svg width="35" height="35" viewBox="0 0 35 35" fill="none" xmlns="http://www.w3.org/2000/svg">
<path d="M34.9397 17.36C34.9397 7.97113 27.3285 0.359985 17.9397 0.359985C8.55085 0.359985 0.939697 7.97113 0.939697 17.36C0.939697 25.8452 7.15638 32.8781 15.2834 34.1534V22.274H10.967V17.36H15.2834V13.6147C15.2834 9.35404 17.8214 7.00061 21.7046 7.00061C23.5646 7.00061 25.51 7.33264 25.51 7.33264V11.5162H23.3663C21.2546 11.5162 20.5959 12.8266 20.5959 14.171V17.36H25.3108L24.5571 22.274H20.5959V34.1534C28.7231 32.8781 34.9397 25.8452 34.9397 17.36Z" fill="#1877F2"/>
<path d="M24.5571 22.274L25.3108 17.36H20.5959V14.171C20.5959 12.8266 21.2545 11.5162 23.3663 11.5162H25.51V7.33264C25.51 7.33264 23.5645 7.00061 21.7046 7.00061C17.8214 7.00061 15.2834 9.35405 15.2834 13.6147V17.36H10.967V22.274H15.2834V34.1535C16.1489 34.2893 17.036 34.36 17.9397 34.36C18.8434 34.36 19.7304 34.2893 20.5959 34.1535V22.274H24.5571Z" fill="white"/>
</svg>
