<svg width="30" height="30" viewBox="0 0 30 30" fill="none" xmlns="http://www.w3.org/2000/svg">
<path d="M15.2195 6.90165C17.1731 6.90165 18.9669 7.5705 20.3988 8.68281L24.7937 4.48993C22.2385 2.23743 18.8936 0.859985 15.2195 0.859985C9.65201 0.859985 4.82384 4.00155 2.39404 8.60522L7.28107 12.4633C8.46491 9.22089 11.5673 6.90165 15.2195 6.90165Z" fill="#F44336"/>
<path d="M29.5939 17.1748C29.6694 16.5807 29.7195 15.9747 29.7195 15.3601C29.7195 14.3235 29.6063 13.3141 29.3996 12.3392H15.2195V18.3809H23.057C22.4229 20.0288 21.294 21.4232 19.8571 22.3919L24.7622 26.2644C27.3625 23.9821 29.1419 20.7859 29.5939 17.1748Z" fill="#2196F3"/>
<path d="M6.76115 15.3601C6.76115 14.3409 6.95069 13.3683 7.28102 12.4635L2.39399 8.60535C1.32889 10.6235 0.719482 12.9195 0.719482 15.3601C0.719482 17.7735 1.31768 20.044 2.36066 22.0458L7.25388 18.1827C6.94051 17.2988 6.76115 16.3515 6.76115 15.3601Z" fill="#FFC107"/>
<path d="M15.2197 23.8182C11.5396 23.8182 8.41726 21.4638 7.25406 18.1825L2.36084 22.0456C4.77876 26.6862 9.62485 29.8599 15.2197 29.8599C18.8782 29.8599 22.2144 28.5007 24.7624 26.2643L19.8573 22.3917C18.532 23.2852 16.9457 23.8182 15.2197 23.8182Z" fill="#00B060"/>
<path opacity="0.1" d="M15.2194 29.558C10.952 29.558 7.11478 27.7973 4.40186 24.9921C7.05755 27.9725 10.9135 29.8601 15.2194 29.8601C19.4855 29.8601 23.3095 28.0097 25.9592 25.0761C23.2543 27.8357 19.4463 29.558 15.2194 29.558Z" fill="black"/>
<path opacity="0.1" d="M15.2195 18.0787V18.3808H23.057L23.1794 18.0787H15.2195Z" fill="black"/>
<path d="M29.7127 15.5376C29.7137 15.478 29.7194 15.4196 29.7194 15.3599C29.7194 15.343 29.7168 15.3267 29.7167 15.3098C29.7159 15.3859 29.7121 15.4612 29.7127 15.5376Z" fill="#E6E6E6"/>
<path opacity="0.2" d="M15.2195 12.3392V12.6413H29.4604C29.4414 12.5416 29.4206 12.4382 29.3995 12.3392H15.2195Z" fill="white"/>
<path d="M29.3996 12.3392H15.2195V18.3808H23.057C21.8382 21.5486 18.8169 23.8183 15.2195 23.8183C10.5481 23.8183 6.76115 20.0314 6.76115 15.36C6.76115 10.6885 10.5481 6.90165 15.2195 6.90165C16.9134 6.90165 18.4746 7.42204 19.7973 8.27998C19.9997 8.41155 20.2086 8.53509 20.3988 8.68281L24.7937 4.48993L24.6945 4.41367C22.1516 2.20977 18.8488 0.859985 15.2195 0.859985C7.21132 0.859985 0.719482 7.35183 0.719482 15.36C0.719482 23.3681 7.21132 29.86 15.2195 29.86C22.6117 29.86 28.699 24.3243 29.5939 17.1747C29.6694 16.5806 29.7195 15.9746 29.7195 15.36C29.7195 14.3234 29.6063 13.3141 29.3996 12.3392Z" fill="url(#paint0_linear_189_1045)"/>
<path opacity="0.1" d="M19.7976 7.97802C18.4749 7.12008 16.9137 6.59969 15.2198 6.59969C10.5484 6.59969 6.76147 10.3866 6.76147 15.058C6.76147 15.109 6.76216 15.1488 6.76305 15.1996C6.84454 10.5987 10.5994 6.90178 15.2198 6.90178C16.9137 6.90178 18.4749 7.42216 19.7976 8.28011C20 8.41168 20.2089 8.53521 20.3991 8.68293L24.794 4.49005L20.3991 8.38085C20.2089 8.23313 20 8.10959 19.7976 7.97802Z" fill="black"/>
<path opacity="0.2" d="M15.2195 1.16207C18.8143 1.16207 22.0864 2.48929 24.6195 4.65609L24.7937 4.48993L24.6607 4.37415C22.1178 2.17025 18.8488 0.859985 15.2195 0.859985C7.21133 0.859985 0.719482 7.35183 0.719482 15.36C0.719482 15.4109 0.726563 15.4601 0.727079 15.511C0.808942 7.5733 7.26229 1.16207 15.2195 1.16207Z" fill="white"/>
<defs>
<linearGradient id="paint0_linear_189_1045" x1="0.719482" y1="15.36" x2="29.7195" y2="15.36" gradientUnits="userSpaceOnUse">
<stop stop-color="white" stop-opacity="0.2"/>
<stop offset="1" stop-color="white" stop-opacity="0"/>
</linearGradient>
</defs>
</svg>
