<svg width="31" height="39" viewBox="0 0 31 39" fill="none" xmlns="http://www.w3.org/2000/svg">
<path fill-rule="evenodd" clip-rule="evenodd" d="M21.4874 5.88631C22.9439 4.32707 23.9294 2.16081 23.6604 0C21.56 0.0749694 19.0153 1.23216 17.5104 2.7908C16.158 4.17229 14.976 6.37845 15.2916 8.49573C17.6362 8.65595 20.028 7.44374 21.4874 5.88631ZM25.9578 20.8022C25.9125 15.9588 29.7915 13.6348 29.9656 13.5205C27.7855 10.2333 24.3883 9.78291 23.1797 9.73273C20.2897 9.42922 17.5407 11.4842 16.0727 11.4842C14.6102 11.4842 12.3478 9.77323 9.95001 9.81858C6.79888 9.86997 3.89442 11.7055 2.27411 14.6148C-0.999757 20.4661 1.43433 29.1365 4.62597 33.882C6.18522 36.206 8.04313 38.8124 10.4827 38.7175C12.8351 38.6244 13.7233 37.1516 16.5649 37.1516C19.4046 37.1516 20.2039 38.7175 22.6894 38.6703C25.2184 38.6244 26.8212 36.3021 28.3695 33.972C30.1585 31.2786 30.8949 28.6692 30.9396 28.5368C30.8828 28.5077 26.0092 26.5875 25.9578 20.8022Z" fill="#CCD0D2"/>
</svg>
