<svg width="26" height="22" viewBox="0 0 26 22" fill="none" xmlns="http://www.w3.org/2000/svg">
    <path d="M23.6364 0H2.36364C1.05773 0 0 0.895 0 2V20C0 21.105 1.05773 22 2.36364 22H23.6364C24.9423 22 26 21.105 26 20V2C26 0.895 24.9423 0 23.6364 0ZM8.21836 18H4.732V8.508H8.21836V18ZM6.43973 7.151C5.31582 7.151 4.407 6.38 4.407 5.431C4.407 4.482 5.317 3.712 6.43973 3.712C7.56009 3.712 8.47127 4.483 8.47127 5.431C8.47127 6.38 7.56009 7.151 6.43973 7.151ZM21.2775 18H17.7935V13.384C17.7935 12.283 17.7698 10.867 15.9817 10.867C14.1676 10.867 13.8887 12.066 13.8887 13.304V18H10.4047V8.508H13.7493V9.805H13.7965C14.2622 9.059 15.3991 8.272 17.095 8.272C20.6251 8.272 21.2775 10.238 21.2775 12.794V18Z" fill="white"/>
    </svg>
    