<svg width="21" height="21" viewBox="0 0 21 21" fill="none" xmlns="http://www.w3.org/2000/svg">
<path d="M19.1357 18.4522C20.3487 16.837 21.0001 15.0254 21.0001 12.0888C21.0001 6.92142 18.1063 2.28985 13.8983 -2.33555e-05L12.8465 2.03447C16.7743 4.69793 17.5422 8.15417 17.8484 10.3334C17.2159 9.92292 16.388 9.77966 15.5765 9.87415C13.4519 10.1208 11.7772 12.3074 11.7772 15.0254C11.7772 16.3959 12.2115 17.7103 12.9845 18.6794C13.7575 19.6484 14.806 20.1929 15.8992 20.1929C17.163 20.1929 18.3713 19.4694 19.1357 18.4522ZM7.35829 18.4522C8.57136 16.837 9.22269 15.0254 9.22269 12.0888C9.22269 6.92141 6.32895 2.28985 2.1209 -2.45759e-05L1.06919 2.03447C4.99697 4.69793 5.76485 8.15417 6.07106 10.3334C5.43858 9.92292 4.61067 9.77965 3.79918 9.87414C1.67454 10.1208 0.000977144 12.3074 0.000976944 15.0254C0.000976843 16.3959 0.435269 17.7103 1.20831 18.6794C1.98135 19.6484 3.02981 20.1929 4.12305 20.1929C5.38676 20.1929 6.59512 19.4694 7.35951 18.4522L7.35829 18.4522Z" fill="#CD3F34"/>
</svg>
