<svg width="14" height="12" viewBox="0 0 14 12" fill="none" xmlns="http://www.w3.org/2000/svg">
<path d="M13.5 2.98633V9.37522C13.5001 9.89173 13.3027 10.3887 12.9484 10.7645C12.594 11.1403 12.1095 11.3665 11.5938 11.3968L11.475 11.4002H2.025C1.50849 11.4002 1.01148 11.2029 0.635675 10.8486C0.259871 10.4942 0.0336775 10.0096 0.00337508 9.49402L0 9.37522V2.98633L6.37539 7.23681L6.45369 7.28136C6.54596 7.32645 6.64731 7.34988 6.75001 7.34988C6.85271 7.34988 6.95406 7.32645 7.04634 7.28136L7.12464 7.23681L13.5 2.98633Z" fill="white"/>
<path d="M11.4752 0.599609C12.2042 0.599609 12.8434 0.98436 13.1998 1.56284L6.75017 5.86259L0.300537 1.56284C0.46978 1.28795 0.702307 1.05753 0.978716 0.890793C1.25513 0.724055 1.5674 0.625837 1.88949 0.604334L2.02517 0.599609H11.4752Z" fill="white"/>
</svg>
