<svg width="28" height="28" viewBox="0 0 28 28" fill="none" xmlns="http://www.w3.org/2000/svg">
<path d="M26.9443 23.9571H1.05571C0.791632 23.9571 0.538368 24.062 0.351636 24.2488C0.164903 24.4355 0.0599976 24.6888 0.0599976 24.9529L0.0599976 26.9443C0.0599976 27.2084 0.164903 27.4616 0.351636 27.6484C0.538368 27.8351 0.791632 27.94 1.05571 27.94H26.9443C27.2084 27.94 27.4616 27.8351 27.6484 27.6484C27.8351 27.4616 27.94 27.2084 27.94 26.9443V24.9529C27.94 24.6888 27.8351 24.4355 27.6484 24.2488C27.4616 24.062 27.2084 23.9571 26.9443 23.9571ZM26.9443 15.9914H1.05571C0.791632 15.9914 0.538368 16.0963 0.351636 16.2831C0.164903 16.4698 0.0599976 16.7231 0.0599976 16.9871L0.0599976 18.9786C0.0599976 19.2426 0.164903 19.4959 0.351636 19.6826C0.538368 19.8694 0.791632 19.9743 1.05571 19.9743H26.9443C27.2084 19.9743 27.4616 19.8694 27.6484 19.6826C27.8351 19.4959 27.94 19.2426 27.94 18.9786V16.9871C27.94 16.7231 27.8351 16.4698 27.6484 16.2831C27.4616 16.0963 27.2084 15.9914 26.9443 15.9914ZM26.9443 8.02571H1.05571C0.791632 8.02571 0.538368 8.13062 0.351636 8.31735C0.164903 8.50408 0.0599976 8.75735 0.0599976 9.02143L0.0599976 11.0129C0.0599976 11.2769 0.164903 11.5302 0.351636 11.7169C0.538368 11.9037 0.791632 12.0086 1.05571 12.0086H26.9443C27.2084 12.0086 27.4616 11.9037 27.6484 11.7169C27.8351 11.5302 27.94 11.2769 27.94 11.0129V9.02143C27.94 8.75735 27.8351 8.50408 27.6484 8.31735C27.4616 8.13062 27.2084 8.02571 26.9443 8.02571ZM26.9443 0.0599976H1.05571C0.791632 0.0599976 0.538368 0.164903 0.351636 0.351635C0.164903 0.538368 0.0599976 0.791632 0.0599976 1.05571L0.0599976 3.04714C0.0599976 3.31122 0.164903 3.56448 0.351636 3.75122C0.538368 3.93795 0.791632 4.04285 1.05571 4.04285H26.9443C27.2084 4.04285 27.4616 3.93795 27.6484 3.75122C27.8351 3.56448 27.94 3.31122 27.94 3.04714V1.05571C27.94 0.791632 27.8351 0.538368 27.6484 0.351635C27.4616 0.164903 27.2084 0.0599976 26.9443 0.0599976Z" fill="#2B0604"/>
</svg>
