<svg width="21" height="21" viewBox="0 0 21 21" fill="none" xmlns="http://www.w3.org/2000/svg">
<path d="M1.7793 18.4522C0.621532 16.837 -0.000107175 15.0254 -0.000107382 12.0888C-0.000107746 6.92142 2.76172 2.28985 6.77792 -2.33555e-05L7.78173 2.03447C4.03299 4.69793 3.30011 8.15417 3.00785 10.3334C3.61151 9.92292 4.40168 9.77966 5.17618 9.87415C7.20397 10.1208 8.80237 12.3074 8.80237 15.0254C8.80237 16.3959 8.38787 17.7103 7.65011 18.6794C6.91226 19.6484 5.91162 20.1929 4.8682 20.1929C3.66205 20.1929 2.50878 19.4694 1.7793 18.4522ZM13.0198 18.4522C11.862 16.837 11.2404 15.0254 11.2404 12.0888C11.2404 6.92141 14.0022 2.28985 18.0185 -2.45759e-05L19.0222 2.03447C15.2735 4.69793 14.5406 8.15417 14.2484 10.3334C14.852 9.92292 15.6422 9.77965 16.4167 9.87414C18.4445 10.1208 20.0417 12.3074 20.0417 15.0254C20.0417 16.3959 19.6273 17.7103 18.8894 18.6794C18.1517 19.6484 17.151 20.1929 16.1076 20.1929C14.9015 20.1929 13.7482 19.4694 13.0186 18.4522L13.0198 18.4522Z" fill="#CD3F34"/>
</svg>
