<svg width="20" height="24" viewBox="0 0 20 24" fill="none" xmlns="http://www.w3.org/2000/svg">
<path d="M1.68824 21.8259C0.58979 19.9605 3.46956e-06 17.8683 3.27342e-06 14.4768C2.9283e-06 8.50913 2.62032 3.16018 6.43072 0.51563L7.3831 2.86525C3.82644 5.94125 3.13111 9.93282 2.85383 12.4495C3.42656 11.9755 4.17624 11.8101 4.91106 11.9192C6.83495 12.204 8.35144 14.7293 8.35144 17.8683C8.35144 19.4511 7.95818 20.9691 7.25822 22.0882C6.55818 23.2074 5.60882 23.8362 4.61885 23.8362C3.47451 23.8362 2.38033 23.0007 1.68824 21.8259ZM12.3528 21.8259C11.2543 19.9605 10.6645 17.8683 10.6645 14.4768C10.6645 8.50912 13.2849 3.16018 17.0953 0.515629L18.0476 2.86525C14.491 5.94125 13.7957 9.93282 13.5184 12.4495C14.0911 11.9755 14.8408 11.8101 15.5756 11.9192C17.4995 12.204 19.0149 14.7293 19.0149 17.8683C19.0149 19.4511 18.6217 20.9691 17.9217 22.0882C17.2217 23.2074 16.2723 23.8362 15.2823 23.8362C14.138 23.8362 13.0438 23.0007 12.3517 21.8259L12.3528 21.8259Z" fill="#0051FF"/>
</svg>
